<svg width="14" height="14" fill="none" xmlns="http://www.w3.org/2000/svg"><g clip-path="url(#clip0)"><path d="M.787 5.902l-.022.005h9.368L7.188 2.955a.766.766 0 0 1-.223-.544.77.77 0 0 1 .223-.543l.458-.458a.76.76 0 0 1 .541-.224.76.76 0 0 1 .541.223l5.049 5.048a.758.758 0 0 1 .223.542.758.758 0 0 1-.223.544L8.728 12.59a.76.76 0 0 1-.54.223.76.76 0 0 1-.542-.223l-.458-.458a.758.758 0 0 1 0-1.072l2.978-2.968H.776A.793.793 0 0 1 0 7.308v-.649c0-.422.365-.757.787-.757z" fill="#fff"/></g><defs><clipPath id="clip0"><path transform="matrix(-1 0 0 1 14 0)" fill="#fff" d="M0 0h14v14H0z"/></clipPath></defs></svg>