<svg width="24" height="16" fill="none" xmlns="http://www.w3.org/2000/svg"><path d="M22.772 2.292a.467.467 0 0 0-.462-.009L17.263 5.04V3.386a2.333 2.333 0 0 0-2.33-2.331H3.33A2.333 2.333 0 0 0 1 3.385v9.202a2.333 2.333 0 0 0 2.33 2.33h11.602a2.333 2.333 0 0 0 2.33-2.33v-1.623l5.049 2.756a.466.466 0 0 0 .689-.41V2.693a.466.466 0 0 0-.228-.4zM16.33 12.587a1.4 1.4 0 0 1-1.398 1.398H3.33a1.4 1.4 0 0 1-1.399-1.398V3.386A1.4 1.4 0 0 1 3.33 1.987h11.601a1.4 1.4 0 0 1 1.398 1.399v9.202zm5.738-.063l-4.805-2.623v-3.8l4.805-2.624v9.047z" fill="#79ACD7" stroke="#79ACD7" stroke-width=".5"/></svg>