<svg width="34" height="16" fill="none" xmlns="http://www.w3.org/2000/svg"><path d="M30.759 6.255l-5.902-.984C23.985 4.018 20.988.283 16.281.283h-5.71c-1.934 0-3.85.495-5.543 1.432A11.476 11.476 0 0 0 .879 5.64l-.417.623a2.524 2.524 0 0 0-.065.097l-.012.017A2.516 2.516 0 0 0 0 7.717v4.906c0 .55.446.996.996.996h2.526a3.273 3.273 0 0 0 3.057 2.098 3.273 3.273 0 0 0 3.057-2.098h13.036a3.273 3.273 0 0 0 3.057 2.098 3.273 3.273 0 0 0 3.057-2.098h4.218c.55 0 .996-.446.996-.996V9.986a3.782 3.782 0 0 0-3.241-3.73zm-8.541-1.069h-9.652V2.275h3.715c2.683 0 4.737 1.63 5.937 2.911zM5.993 3.458a9.478 9.478 0 0 1 4.579-1.183h.002v2.911H3.75a9.467 9.467 0 0 1 2.243-1.728zm.586 10.267a1.268 1.268 0 0 1-1.277-1.255c0-.693.573-1.256 1.277-1.256s1.277.563 1.277 1.255c0 .693-.573 1.256-1.277 1.256zm19.15 0a1.268 1.268 0 0 1-1.277-1.255c0-.693.573-1.256 1.277-1.256s1.277.563 1.277 1.255c0 .693-.573 1.256-1.277 1.256zm3.157-2.098a3.27 3.27 0 0 0-3.157-2.405 3.271 3.271 0 0 0-3.157 2.405H9.736A3.271 3.271 0 0 0 6.58 9.222a3.271 3.271 0 0 0-3.156 2.405h-1.43v-3.91a.54.54 0 0 1 .539-.539h21.651l6.262 1.044.028.005c.17.023.331.07.481.137a.996.996 0 0 0 .274 1.954h.78v1.308h-3.122z" fill="#fff"/></svg>