<svg width="22" height="22" fill="none" xmlns="http://www.w3.org/2000/svg"><path d="M11 0C4.934 0 0 4.934 0 11s4.934 11 11 11 11-4.935 11-11S17.066 0 11 0zm0 20.296c-5.125 0-9.296-4.17-9.296-9.296 0-5.126 4.17-9.296 9.296-9.296 5.125 0 9.296 4.17 9.296 9.296 0 5.126-4.17 9.296-9.296 9.296z" fill="#fff"/><path d="M15.957 8.079h0a.638.638 0 0 0-.98 0l-4.591 5.229-2.364-2.692a.638.638 0 0 0-.979 0 .818.818 0 0 0 0 1.056l2.854 3.25a.65.65 0 0 0 .489.228.65.65 0 0 0 .49-.229l5.08-5.786s0 0 0 0a.818.818 0 0 0 0-1.056z" fill="#fff" stroke="#fff" stroke-width=".3"/></svg>