<svg width="20" height="20" fill="none" xmlns="http://www.w3.org/2000/svg"><path d="M16.788 1.348H3.193A2.58 2.58 0 0 0 .615 3.925v8.32a2.58 2.58 0 0 0 2.569 2.578v3.775l5.425-3.775h8.179a2.58 2.58 0 0 0 2.577-2.578v-8.32a2.58 2.58 0 0 0-2.577-2.577zm1.479 10.897a1.48 1.48 0 0 1-1.48 1.48H8.266l-3.983 2.77v-2.77h-1.09a1.48 1.48 0 0 1-1.48-1.48v-8.32c0-.815.664-1.479 1.48-1.479h13.595c.815 0 1.479.664 1.479 1.48v8.319z" fill="#79ACD7" stroke="#79ACD7" stroke-width=".4"/><path d="M5.634 5.23h8.713v1.098H5.634V5.23zm0 2.343h8.713v1.099H5.634V7.573zm0 2.344h8.713v1.099H5.634V9.917z" fill="#79ACD7"/></svg>