<svg width="18" height="18" fill="none" xmlns="http://www.w3.org/2000/svg"><path d="M16.512 10.242a50.766 50.766 0 0 0-.776-.456 6.749 6.749 0 0 0 0-1.572c.262-.15.523-.304.775-.456.426-.256.603-.795.413-1.255 0 0 0 0 0 0l-.555-1.34a1.018 1.018 0 0 0-1.18-.596 51.03 51.03 0 0 0-.87.225 6.75 6.75 0 0 0-1.111-1.11c.078-.292.154-.585.225-.872a1.018 1.018 0 0 0-.596-1.179l-1.34-.555c-.46-.19-1-.013-1.255.413-.152.253-.306.514-.456.775a6.75 6.75 0 0 0-1.572 0 50.207 50.207 0 0 0-.456-.775 1.018 1.018 0 0 0-1.255-.413l-1.34.555c-.46.19-.716.698-.596 1.18.071.286.147.579.225.87a6.746 6.746 0 0 0-1.11 1.111 50.015 50.015 0 0 0-.872-.225 1.018 1.018 0 0 0-1.179.596l-.555 1.34c-.19.46-.013 1 .413 1.255.253.152.514.306.775.456a6.753 6.753 0 0 0 0 1.572c-.262.15-.522.304-.776.456a1.018 1.018 0 0 0-.412 1.255l.555 1.34c.19.46.697.716 1.18.596.285-.071.578-.147.87-.225.325.412.699.785 1.111 1.11a51.21 51.21 0 0 0-.225.872c-.12.481.136.988.596 1.179l1.34.555a1.018 1.018 0 0 0 1.255-.412c.151-.252.305-.513.456-.776a6.76 6.76 0 0 0 1.572 0c.15.26.303.521.456.776a1.02 1.02 0 0 0 1.255.412l1.34-.555c.46-.19.716-.698.596-1.18-.07-.284-.146-.576-.225-.87a6.752 6.752 0 0 0 1.111-1.111c.291.078.584.154.87.225.482.12.99-.136 1.18-.596l.555-1.34c.19-.46.013-1-.412-1.255zm-1.12 2.127a48.953 48.953 0 0 1-.835-.217 1.01 1.01 0 0 0-1.062.355c-.287.369-.62.702-.99.989a1.01 1.01 0 0 0-.353 1.061c.076.281.149.562.218.835l-1.233.51a49.07 49.07 0 0 1-.436-.743 1.01 1.01 0 0 0-1.001-.5 5.678 5.678 0 0 1-1.399-.001 1.01 1.01 0 0 0-1.001.5 52.87 52.87 0 0 1-.437.745l-1.233-.51c.07-.276.142-.556.218-.836a1.01 1.01 0 0 0-.354-1.062 5.667 5.667 0 0 1-.99-.989 1.01 1.01 0 0 0-1.062-.354c-.279.076-.56.149-.834.218l-.51-1.233c.243-.146.493-.292.743-.436a1.01 1.01 0 0 0 .5-1.001 5.675 5.675 0 0 1 .002-1.4 1.01 1.01 0 0 0-.5-1.001c-.25-.145-.5-.291-.745-.438l.51-1.232c.275.07.556.142.836.217a1.01 1.01 0 0 0 1.062-.354c.287-.369.62-.702.989-.989.321-.25.46-.667.353-1.062a49.602 49.602 0 0 1-.217-.834l1.233-.51c.145.242.292.492.436.743a1.01 1.01 0 0 0 1.001.5 5.665 5.665 0 0 1 1.399.001 1.01 1.01 0 0 0 1.001-.5c.144-.251.291-.501.437-.745l1.232.51c-.069.276-.142.556-.217.836a1.01 1.01 0 0 0 .354 1.062c.37.287.703.62.99.989.25.32.666.46 1.061.353.28-.075.56-.148.835-.217l.51 1.232c-.243.146-.492.293-.743.437a1.01 1.01 0 0 0-.501 1c.058.464.058.935 0 1.4-.05.404.146.797.5 1.001.25.144.5.29.745.437l-.51 1.232z" fill="#fff" stroke="#fff" stroke-width=".2"/><path d="M12.404 7.59s0 0 0 0A3.688 3.688 0 0 0 7.59 5.596a3.689 3.689 0 0 0-1.994 4.814 3.66 3.66 0 0 0 1.994 1.994 3.679 3.679 0 0 0 2.82 0 3.688 3.688 0 0 0 1.994-4.814zm-2.408 3.815a2.587 2.587 0 0 1-1.992 0 2.587 2.587 0 0 1-1.409-1.409 2.606 2.606 0 0 1 2.402-3.6c1.022 0 1.994.606 2.408 1.608a2.606 2.606 0 0 1-1.409 3.401z" fill="#fff" stroke="#fff" stroke-width=".3"/></svg>