<svg width="18" height="23" fill="none" xmlns="http://www.w3.org/2000/svg"><path d="M9.154 0c-1.956 0-3.646.812-4.7 2.129C3.4 3.445 2.961 5.152 2.961 6.994v.968h2.654v-.968c0-1.396.346-2.495.913-3.207.566-.712 1.337-1.133 2.626-1.133 1.292 0 2.06.397 2.626 1.106.567.708.912 1.82.912 3.234v.968h2.654v-.968c0-1.852-.466-3.576-1.52-4.893C12.772.784 11.106 0 9.154 0zM2.96 8.846A2.655 2.655 0 0 0 .308 11.5v8.846A2.655 2.655 0 0 0 2.96 23h12.385A2.655 2.655 0 0 0 18 20.346V11.5a2.655 2.655 0 0 0-2.654-2.654H2.961zm6.193 4.423c.978 0 1.769.791 1.769 1.77 0 .653-.356 1.212-.885 1.52v2.018a.886.886 0 0 1-.884.884.886.886 0 0 1-.885-.884v-2.018a1.753 1.753 0 0 1-.884-1.52c0-.979.79-1.77 1.769-1.77z" fill="#79ACD7"/></svg>