<svg width="20" height="20" fill="none" xmlns="http://www.w3.org/2000/svg"><g clip-path="url(#clip0)" fill="#fff" stroke="#fff" stroke-width=".5"><path d="M0 6.851v8.824a2.442 2.442 0 0 0 2.44 2.441h15.12a2.442 2.442 0 0 0 2.44-2.44V6.85a2.324 2.324 0 0 0-2.322-2.322h-3.25l-.077-.34a2.967 2.967 0 0 0-2.906-2.305H8.55A2.974 2.974 0 0 0 5.645 4.19l-.078.339H2.322A2.326 2.326 0 0 0 0 6.85zm5.967-1.322c.233 0 .433-.16.486-.388l.167-.727a1.974 1.974 0 0 1 1.931-1.53h2.894c.926 0 1.718.628 1.93 1.53l.168.727a.502.502 0 0 0 .486.388h3.645c.73 0 1.322.591 1.322 1.322v8.824a1.44 1.44 0 0 1-1.44 1.441H2.44A1.44 1.44 0 0 1 1 15.676V6.85c0-.73.592-1.322 1.322-1.322h3.645z"/><path d="M3.384 8.333a.67.67 0 1 0 0-1.34.67.67 0 0 0 0 1.34zM10 15.549c2.314 0 4.2-1.886 4.2-4.2s-1.886-4.2-4.2-4.2a4.204 4.204 0 0 0-4.2 4.2c0 2.318 1.886 4.2 4.2 4.2zm0-7.4c1.763 0 3.2 1.437 3.2 3.2 0 1.763-1.437 3.2-3.2 3.2a3.205 3.205 0 0 1-3.2-3.2c0-1.763 1.437-3.2 3.2-3.2z"/></g><defs><clipPath id="clip0"><path fill="#fff" d="M0 0h20v20H0z"/></clipPath></defs></svg>