<svg width="17" height="21" fill="none" xmlns="http://www.w3.org/2000/svg"><path d="M8.786 11.238h.116c1.065-.02 1.926-.425 2.561-1.2 1.399-1.708 1.166-4.635 1.14-4.915-.09-2.097-1.005-3.1-1.76-3.568-.564-.35-1.221-.54-1.955-.555h-.062c-.403 0-1.195.07-1.954.539-.763.468-1.693 1.472-1.784 3.584-.025.28-.258 3.207 1.14 4.915.633.775 1.494 1.18 2.558 1.2zM6.058 5.222c0-.012.004-.024.004-.032.12-2.82 1.969-3.124 2.76-3.124h.045c.98.024 2.647.457 2.76 3.124 0 .012 0 .024.003.032.004.027.258 2.703-.897 4.111-.458.56-1.068.835-1.87.842h-.037c-.799-.008-1.413-.283-1.867-.842-1.151-1.4-.904-4.088-.9-4.111z" fill="#fff" stroke="#fff"/><path d="M16.31 16.093v-.012c0-.031-.005-.063-.005-.098-.021-.78-.069-2.6-1.645-3.183l-.036-.012c-1.639-.453-3-1.476-3.015-1.487a.466.466 0 0 0-.683.13.56.56 0 0 0 .12.74c.061.046 1.507 1.136 3.316 1.64.847.326.94 1.306.966 2.203 0 .036 0 .067.004.099.004.354-.018.9-.076 1.215-.589.362-2.895 1.614-6.404 1.614-3.495 0-5.816-1.256-6.408-1.617-.058-.315-.083-.862-.076-1.216 0-.032.003-.063.003-.099.026-.897.12-1.876.967-2.203 1.809-.504 3.254-1.597 3.316-1.64a.56.56 0 0 0 .12-.74.466.466 0 0 0-.683-.13c-.015.012-1.37 1.035-3.015 1.487a.47.47 0 0 0-.036.012c-1.577.586-1.624 2.408-1.646 3.183 0 .035 0 .067-.003.098v.012c-.004.205-.008 1.255.185 1.782a.498.498 0 0 0 .189.248c.109.079 2.72 1.881 7.09 1.881 4.37 0 6.982-1.806 7.09-1.88a.519.519 0 0 0 .19-.249c.181-.523.178-1.573.174-1.778z" fill="#fff" stroke="#fff"/></svg>