<svg width="17" height="17" viewBox="0 0 17 17" fill="none" xmlns="http://www.w3.org/2000/svg">
<g clip-path="url(#clip0)">
<path d="M8.5 0C3.81281 0 0 3.81281 0 8.5C0 13.1872 3.81281 17 8.5 17C13.1872 17 17 13.1865 17 8.5C17 3.81348 13.1872 0 8.5 0ZM8.5 15.6832C4.5397 15.6832 1.3168 12.461 1.3168 8.5C1.3168 4.53903 4.5397 1.3168 8.5 1.3168C12.4603 1.3168 15.6832 4.53903 15.6832 8.5C15.6832 12.461 12.461 15.6832 8.5 15.6832Z" fill="white" stroke="white" stroke-width="0.2"/>
<path d="M11.7923 7.78232H9.15866V5.14871C9.15866 4.78527 8.86435 4.4903 8.50025 4.4903C8.13614 4.4903 7.84183 4.78527 7.84183 5.14871V7.78232H5.20822C4.84412 7.78232 4.5498 8.0773 4.5498 8.44074C4.5498 8.80418 4.84412 9.09915 5.20822 9.09915H7.84183V11.7328C7.84183 12.0962 8.13614 12.3912 8.50025 12.3912C8.86435 12.3912 9.15866 12.0962 9.15866 11.7328V9.09915H11.7923C12.1564 9.09915 12.4507 8.80418 12.4507 8.44074C12.4507 8.0773 12.1564 7.78232 11.7923 7.78232Z" fill="white" stroke="white" stroke-width="0.3"/>
</g>
<defs>
<clipPath id="clip0">
<rect width="17" height="17" fill="white"/>
</clipPath>
</defs>
</svg>
