<svg width="14" height="14" viewBox="0 0 14 14" fill="none" xmlns="http://www.w3.org/2000/svg">
<g clip-path="url(#clip0)">
<path d="M0.786956 5.90219L0.765102 5.90697L10.1333 5.90697L7.18826 2.95548C7.04405 2.81138 6.96494 2.61617 6.96494 2.4113C6.96494 2.20642 7.04405 2.01258 7.18826 1.86814L7.6465 1.40967C7.7906 1.26557 7.98261 1.1859 8.18738 1.1859C8.39226 1.1859 8.58439 1.265 8.72848 1.4091L13.7768 6.45695C13.9215 6.60162 14.0006 6.79432 14 6.99931C14.0006 7.20544 13.9215 7.39826 13.7768 7.54269L8.72849 12.591C8.58439 12.735 8.39237 12.8142 8.18738 12.8142C7.98262 12.8142 7.7906 12.7349 7.6465 12.591L7.18826 12.1325C7.04405 11.9887 6.96494 11.7965 6.96494 11.5917C6.96494 11.3869 7.04405 11.2049 7.18826 11.0609L10.1665 8.09291L0.776484 8.09291C0.354549 8.09291 -3.24266e-06 7.72925 -3.27953e-06 7.30754L-3.33621e-06 6.6591C-3.37308e-06 6.23739 0.365021 5.90219 0.786956 5.90219Z" fill="white"/>
</g>
<defs>
<clipPath id="clip0">
<rect width="14" height="14" transform="matrix(-1 8.74228e-08 8.74228e-08 1 14 0)" fill="white"/>
</clipPath>
</defs>
</svg>
