<svg width="12" height="8" viewBox="0 0 12 8" fill="none" xmlns="http://www.w3.org/2000/svg">
<path d="M6.46824 6.85848L11.8083 1.51833C11.9319 1.39482 12 1.22994 12 1.05414C12 0.878335 11.9319 0.713458 11.8083 0.589947L11.4151 0.196681C11.1589 -0.059219 10.7425 -0.059219 10.4867 0.196681L6.00249 4.68094L1.51326 0.191705C1.38965 0.0681941 1.22487 -4.70996e-07 1.04916 -4.78676e-07C0.873262 -4.86365e-07 0.708484 0.0681941 0.584777 0.191705L0.191708 0.58497C0.068099 0.708579 1.86917e-06 0.873359 1.86149e-06 1.04916C1.8538e-06 1.22497 0.068099 1.38984 0.191708 1.51335L5.53664 6.85848C5.66064 6.98229 5.8262 7.05029 6.0022 7.0499C6.17888 7.05029 6.34434 6.98229 6.46824 6.85848Z" fill="#BFBFBF"/>
</svg>
