<svg width="26" height="16" viewBox="0 0 26 16" fill="none" xmlns="http://www.w3.org/2000/svg">
<path d="M11.9855 0.777301L0.415362 12.3476C0.147544 12.6152 3.17783e-08 12.9725 2.7236e-08 13.3534C2.26937e-08 13.7343 0.147544 14.0915 0.415362 14.3591L1.26723 15.2112C1.82231 15.7657 2.72448 15.7657 3.27872 15.2112L12.9946 5.49531L22.7213 15.222C22.9891 15.4896 23.3461 15.6373 23.7268 15.6373C24.1079 15.6373 24.465 15.4896 24.733 15.222L25.5846 14.3699C25.8525 14.1021 26 13.7451 26 13.3642C26 12.9833 25.8525 12.626 25.5846 12.3584L14.004 0.777301C13.7353 0.509059 13.3766 0.361728 12.9952 0.362574C12.6124 0.361728 12.2539 0.509059 11.9855 0.777301Z" fill="white"/>
</svg>
