<svg width="24" height="16" viewBox="0 0 24 16" fill="none" xmlns="http://www.w3.org/2000/svg">
<path d="M22.7717 2.2915C22.63 2.20756 22.4549 2.20429 22.3103 2.28312L17.2626 5.03931V3.38556C17.2611 2.09905 16.2186 1.05651 14.9321 1.05505H3.33051C2.044 1.05651 1.00146 2.09905 1 3.38556V12.5874C1.00146 13.8739 2.044 14.9165 3.33051 14.9179H14.9321C16.2186 14.9165 17.2611 13.8739 17.2626 12.5874V10.9637L22.3105 13.7199C22.4549 13.7987 22.6302 13.7957 22.7717 13.7117C22.9133 13.6276 23 13.4752 23 13.3108V2.69224C23 2.52764 22.9132 2.37543 22.7717 2.2915ZM16.33 12.5876C16.3293 13.3596 15.7037 13.985 14.9317 13.9859H3.33051C2.55853 13.985 1.93311 13.3596 1.9322 12.5876V3.38556C1.93311 2.61376 2.55853 1.98817 3.33051 1.98726H14.9321C15.7039 1.98817 16.3295 2.61376 16.3304 3.38556L16.33 12.5876ZM22.0678 12.5253L17.2626 9.9017V6.10133L22.0678 3.47787V12.5253Z" fill="#79ACD7" stroke="#79ACD7" stroke-width="0.5"/>
</svg>
