<svg width="34" height="16" viewBox="0 0 34 16" fill="none" xmlns="http://www.w3.org/2000/svg">
<path d="M30.759 6.25524L24.8574 5.27103C23.9845 4.01768 20.9884 0.282663 16.2807 0.282663H10.5719C8.63733 0.282663 6.72018 0.777922 5.02775 1.71491C3.3399 2.64938 1.90579 4.00639 0.879484 5.63992L0.461656 6.26288C0.439211 6.29469 0.417563 6.32703 0.396578 6.3599L0.384957 6.37723L0.385422 6.3773C0.141578 6.7663 0 7.2257 0 7.71771V12.6226C0 13.1727 0.445984 13.6187 0.996094 13.6187H3.52225C3.99048 14.8439 5.18387 15.7173 6.57927 15.7173C7.97473 15.7173 9.16818 14.8439 9.63634 13.6187H22.6719C23.1401 14.8439 24.3335 15.7173 25.729 15.7173C27.1244 15.7173 28.3178 14.8439 28.786 13.6187H33.0039C33.554 13.6187 34 13.1727 34 12.6226V9.98568C34 8.11707 32.6077 6.51615 30.759 6.25524ZM22.2178 5.1861H12.5659V2.27492H16.2807C18.9635 2.27485 21.0178 3.90512 22.2178 5.1861ZM5.9927 3.45788C7.39062 2.68398 8.97407 2.27492 10.5719 2.27492H10.5736V5.1861H3.75016C4.40546 4.50325 5.16136 3.91807 5.9927 3.45788ZM6.57927 13.7251C5.87516 13.7251 5.30234 13.1619 5.30234 12.4695C5.30234 11.7772 5.87516 11.2139 6.57927 11.2139C7.28344 11.2139 7.85619 11.7772 7.85619 12.4695C7.85626 13.1618 7.28344 13.7251 6.57927 13.7251ZM25.729 13.7251C25.0248 13.7251 24.452 13.1619 24.452 12.4695C24.452 11.7772 25.0249 11.2139 25.729 11.2139C26.4331 11.2139 27.0059 11.7772 27.0059 12.4695C27.0059 13.1618 26.4331 13.7251 25.729 13.7251ZM28.8857 11.6265C28.5111 10.2432 27.2381 9.22174 25.729 9.22174C24.2198 9.22174 22.9469 10.2432 22.5721 11.6265H9.73609C9.36142 10.2432 8.08841 9.22174 6.57927 9.22174C5.07018 9.22174 3.79724 10.2432 3.42251 11.6265H1.99219V7.71771C1.99219 7.42021 2.23417 7.17822 2.53161 7.17822H24.183L30.4445 8.22246C30.4541 8.22405 30.4637 8.22552 30.4734 8.22678C30.6428 8.24995 30.804 8.2973 30.9541 8.3645C30.5374 8.48364 30.232 8.86654 30.232 9.32155C30.232 9.87166 30.678 10.3176 31.2281 10.3176H32.0078V11.6264H28.8857V11.6265Z" fill="white"/>
</svg>
