<svg width="22" height="22" viewBox="0 0 22 22" fill="none" xmlns="http://www.w3.org/2000/svg">
<path d="M11 0C4.93423 0 0 4.93423 0 11C0 17.0658 4.93423 22 11 22C17.0658 22 22 17.0649 22 11C22 4.93509 17.0658 0 11 0ZM11 20.2959C5.8749 20.2959 1.7041 16.126 1.7041 11C1.7041 5.87404 5.8749 1.7041 11 1.7041C16.1251 1.7041 20.2959 5.87404 20.2959 11C20.2959 16.126 16.126 20.2959 11 20.2959Z" fill="white"/>
<path d="M15.9567 8.07867L15.9567 8.07866C15.6889 7.77377 15.2456 7.77377 14.9778 8.07871L10.386 13.308L8.02219 10.6161C7.75441 10.3111 7.31114 10.3111 7.04334 10.616C6.78555 10.9096 6.78556 11.3785 7.04333 11.672L9.89654 14.9213C10.028 15.0709 10.2048 15.15 10.3859 15.15C10.5671 15.15 10.744 15.0709 10.8754 14.9213L15.9567 9.13464C15.9567 9.13463 15.9567 9.13463 15.9567 9.13463C16.2145 8.8411 16.2144 8.37222 15.9567 8.07867Z" fill="white" stroke="white" stroke-width="0.3"/>
</svg>
