<svg width="18" height="18" viewBox="0 0 18 18" fill="none" xmlns="http://www.w3.org/2000/svg">
<path d="M16.5115 10.2421C16.2576 10.0895 15.997 9.93607 15.7364 9.78569C15.7976 9.26352 15.7978 8.73531 15.7366 8.21418C15.9983 8.06324 16.2587 7.90994 16.5114 7.758C16.9369 7.50234 17.1142 6.96291 16.9239 6.50314C16.9239 6.50314 16.9239 6.50315 16.9238 6.5031L16.3686 5.16263C16.1782 4.70301 15.6716 4.44683 15.1897 4.56687C14.9033 4.63815 14.6107 4.71395 14.3191 4.79216C13.9936 4.38027 13.6201 4.00683 13.2077 3.68112C13.2859 3.38952 13.3617 3.09678 13.4331 2.81032C13.5531 2.32867 13.297 1.82188 12.8374 1.63145L11.4969 1.07622C11.0373 0.885747 10.4977 1.06296 10.2419 1.48853C10.0896 1.74202 9.93618 2.00263 9.78562 2.26367C9.26359 2.2024 8.73548 2.20225 8.21411 2.26334C8.06307 2.0015 7.90972 1.74098 7.75798 1.48853C7.50213 1.06306 6.9627 0.885794 6.50303 1.07622L5.16256 1.63145C4.70303 1.82183 4.4468 2.32867 4.56685 2.81032C4.63831 3.09735 4.71407 3.38999 4.79213 3.68084C4.38029 4.00626 4.0068 4.37989 3.68114 4.7923C3.38888 4.71385 3.09614 4.6381 2.81025 4.56687C2.32846 4.44673 1.82176 4.7031 1.63134 5.16267L1.07619 6.5031C0.885864 6.96277 1.06318 7.50225 1.48855 7.75791C1.74209 7.91027 2.0027 8.06366 2.26369 8.21427C2.20247 8.73626 2.20232 9.26437 2.26341 9.78578C2.00218 9.93649 1.74171 10.0898 1.48846 10.242C1.06308 10.4977 0.88577 11.0371 1.07615 11.4969L1.63143 12.8373C1.82181 13.2969 2.32836 13.5532 2.81034 13.4331C3.09638 13.3619 3.38902 13.2861 3.68077 13.2078C4.00628 13.6196 4.37982 13.993 4.79223 14.3188C4.71393 14.6107 4.63812 14.9035 4.56685 15.1896C4.4468 15.6712 4.70293 16.1781 5.16256 16.3685L6.50307 16.9237C6.6276 16.9753 6.75793 16.9999 6.88689 16.9999C7.23416 16.9999 7.57152 16.8217 7.75817 16.5115C7.90935 16.2599 8.06269 15.9994 8.21449 15.7364C8.73642 15.7976 9.26467 15.7977 9.78599 15.7367C9.93595 15.9967 10.0893 16.2571 10.2421 16.5115C10.4979 16.937 11.0373 17.1142 11.4971 16.9238L12.8375 16.3686C13.2971 16.1782 13.5533 15.6714 13.4333 15.1897C13.3624 14.9052 13.2866 14.6125 13.208 14.3192C13.6197 13.9938 13.9933 13.6202 14.319 13.2078C14.6104 13.286 14.9032 13.3617 15.1898 13.4331C15.6714 13.5533 16.1783 13.2971 16.3687 12.8374L16.9239 11.4969C17.1142 11.0372 16.9369 10.4977 16.5115 10.2421ZM15.3923 12.3695C15.1169 12.3005 14.8363 12.2276 14.5572 12.1524C14.1621 12.0461 13.7452 12.185 13.495 12.5065C13.2075 12.8758 12.8747 13.2087 12.5059 13.4958C12.1849 13.7459 12.0461 14.1627 12.1525 14.5575C12.2281 14.8384 12.301 15.1188 12.3695 15.3922L11.1374 15.9026C10.9908 15.658 10.8441 15.4082 10.7006 15.1589C10.4965 14.8045 10.1037 14.6081 9.69986 14.6581C9.23614 14.7157 8.76543 14.7156 8.30109 14.6579C7.89614 14.6076 7.50364 14.804 7.29958 15.1585C7.15439 15.4106 7.0076 15.6606 6.86265 15.9025L5.63048 15.3921C5.6994 15.1173 5.77232 14.8367 5.8476 14.5572C5.95397 14.1621 5.81496 13.7452 5.4935 13.4949C5.12416 13.2074 4.79138 12.8747 4.50421 12.506C4.25421 12.1848 3.83742 12.0462 3.44242 12.1525C3.16303 12.2277 2.88251 12.3006 2.60775 12.3695L2.09737 11.1374C2.34077 10.9914 2.59072 10.8447 2.841 10.7006C3.19548 10.4965 3.39209 10.1038 3.3419 9.69989C3.28421 9.23611 3.28435 8.76545 3.34204 8.30107C3.39242 7.89682 3.19596 7.50366 2.84129 7.29951C2.5911 7.15546 2.3411 7.00866 2.09733 6.86248L2.6077 5.63036C2.88223 5.69918 3.1628 5.77211 3.4427 5.84744C3.83761 5.95385 4.25459 5.8148 4.50496 5.49333C4.79246 5.124 5.12525 4.79117 5.49388 4.50409C5.81501 4.25404 5.95373 3.83721 5.84737 3.44221C5.77237 3.16372 5.69944 2.88324 5.63034 2.60758L6.86251 2.09725C7.00798 2.33999 7.15477 2.5899 7.29925 2.84089C7.5034 3.19537 7.89656 3.39225 8.3 3.34173C8.76354 3.28405 9.23416 3.28405 9.69892 3.34197C10.1034 3.39235 10.4963 3.19565 10.7004 2.84117C10.8444 2.59098 10.9912 2.34098 11.1373 2.09725L12.3694 2.60758C12.3005 2.88273 12.2275 3.16334 12.1523 3.44263C12.0459 3.83763 12.185 4.25461 12.5064 4.50485C12.8757 4.79235 13.2085 5.12508 13.4957 5.49376C13.7457 5.81484 14.1624 5.95357 14.5575 5.84725C14.8367 5.77206 15.1172 5.69914 15.3922 5.63022L15.9025 6.86234C15.6594 7.00805 15.4095 7.15479 15.1589 7.29913C14.8044 7.50324 14.6077 7.89602 14.658 8.29989C14.7157 8.76342 14.7156 9.23413 14.6577 9.6988C14.6075 10.1031 14.804 10.4962 15.1585 10.7003C15.4083 10.8441 15.6583 10.9909 15.9025 11.1372L15.3923 12.3695Z" fill="white" stroke="white" stroke-width="0.2"/>
<path d="M12.404 7.5901C12.404 7.5901 12.404 7.59011 12.404 7.59006C11.6266 5.71322 9.46739 4.81874 7.59027 5.59614C5.71348 6.3736 4.81895 8.53303 5.59641 10.4099C5.97296 11.3191 6.68117 12.0272 7.59032 12.4038C8.04489 12.5921 8.52253 12.6862 9.00018 12.6862C9.47782 12.6862 9.95546 12.5921 10.4101 12.4038C12.2869 11.6264 13.1814 9.46699 12.404 7.5901ZM9.9964 11.4051C9.35404 11.6711 8.64654 11.6711 8.004 11.4051C7.36164 11.139 6.86131 10.6386 6.59518 9.99619C6.04579 8.67006 6.67787 7.14421 8.00404 6.59492C8.32881 6.46039 8.66541 6.39671 8.99683 6.39671C10.0189 6.39671 10.9905 7.00237 11.4053 8.00379C11.9546 9.32992 11.3225 10.8557 9.9964 11.4051Z" fill="white" stroke="white" stroke-width="0.3"/>
</svg>
