<svg width="18" height="23" viewBox="0 0 18 23" fill="none" xmlns="http://www.w3.org/2000/svg">
<path d="M9.15377 0C7.19794 0 5.50819 0.81205 4.45425 2.12861C3.40032 3.44516 2.96146 5.15219 2.96146 6.99399V7.96154H5.61531V6.99399C5.61531 5.59796 5.96086 4.4991 6.52757 3.78726C7.09428 3.07542 7.86486 2.65385 9.15377 2.65385C10.4461 2.65385 11.2133 3.05123 11.78 3.75962C12.3467 4.468 12.6922 5.58068 12.6922 6.99399V7.96154H15.3461V6.99399C15.3461 5.14183 14.8796 3.41752 13.8256 2.10096C12.7717 0.784405 11.1061 0 9.15377 0ZM2.96146 8.84615C1.49632 8.84615 0.307617 10.0349 0.307617 11.5V20.3462C0.307617 21.8113 1.49632 23 2.96146 23H15.3461C16.8112 23 17.9999 21.8113 17.9999 20.3462V11.5C17.9999 10.0349 16.8112 8.84615 15.3461 8.84615H2.96146ZM9.15377 13.2692C10.1317 13.2692 10.923 14.0605 10.923 15.0385C10.923 15.6916 10.5671 16.2514 10.0384 16.5589V18.5769C10.0384 19.0642 9.641 19.4615 9.15377 19.4615C8.66654 19.4615 8.26916 19.0642 8.26916 18.5769V16.5589C7.74046 16.2514 7.38454 15.6916 7.38454 15.0385C7.38454 14.0605 8.17586 13.2692 9.15377 13.2692Z" fill="#79ACD7"/>
</svg>
