<svg width="11" height="17" viewBox="0 0 11 17" fill="none" xmlns="http://www.w3.org/2000/svg">
<path d="M10.2225 7.83666L2.65731 0.271583C2.48234 0.0964708 2.24876 0 1.99971 0C1.75065 0 1.51708 0.0964708 1.34211 0.271583L0.78498 0.82857C0.422454 1.19151 0.422454 1.78139 0.78498 2.14378L7.13768 8.49648L0.777931 14.8562C0.602957 15.0313 0.506348 15.2648 0.506348 15.5137C0.506348 15.7629 0.602957 15.9963 0.777931 16.1716L1.33506 16.7284C1.51017 16.9035 1.74361 17 1.99266 17C2.24172 17 2.47529 16.9035 2.65027 16.7284L10.2225 9.15643C10.3979 8.98076 10.4943 8.74622 10.4937 8.49689C10.4943 8.24659 10.3979 8.01219 10.2225 7.83666Z" fill="white"/>
</svg>
