<svg width="20" height="20" viewBox="0 0 20 20" fill="none" xmlns="http://www.w3.org/2000/svg">
<g clip-path="url(#clip0)">
<path d="M0 6.85104V15.6755C0 17.0225 1.09388 18.1163 2.44082 18.1163H17.5592C18.9061 18.1163 20 17.0225 20 15.6755V6.85104C20 5.5694 18.9592 4.52859 17.6776 4.52859H14.4286L14.351 4.18981C14.0367 2.83063 12.8408 1.88369 11.4449 1.88369H8.55102C7.15918 1.88369 5.96327 2.83063 5.6449 4.18981L5.56735 4.52859H2.32245C1.04082 4.52859 0 5.57349 0 6.85104ZM5.96735 5.52859C6.2 5.52859 6.4 5.3694 6.45306 5.14083L6.62041 4.4143C6.83265 3.51226 7.62449 2.88369 8.55102 2.88369H11.4449C12.3714 2.88369 13.1633 3.51226 13.3755 4.4143L13.5429 5.14083C13.5959 5.36532 13.7959 5.52859 14.0286 5.52859H17.6735C18.4041 5.52859 18.9959 6.12042 18.9959 6.85104V15.6755C18.9959 16.4714 18.351 17.1163 17.5551 17.1163H2.44082C1.6449 17.1163 1 16.4714 1 15.6755V6.85104C1 6.12042 1.59184 5.52859 2.32245 5.52859H5.96735Z" fill="white" stroke="white" stroke-width="0.5"/>
<path d="M3.38374 8.33266C3.75344 8.33266 4.05313 8.03297 4.05313 7.66328C4.05313 7.29358 3.75344 6.99389 3.38374 6.99389C3.01405 6.99389 2.71436 7.29358 2.71436 7.66328C2.71436 8.03297 3.01405 8.33266 3.38374 8.33266Z" fill="white" stroke="white" stroke-width="0.5"/>
<path d="M9.9998 15.549C12.3141 15.549 14.1998 13.6633 14.1998 11.349C14.1998 9.03471 12.3141 7.14899 9.9998 7.14899C7.68552 7.14899 5.7998 9.03063 5.7998 11.349C5.7998 13.6674 7.68552 15.549 9.9998 15.549ZM9.9998 8.14899C11.7631 8.14899 13.1998 9.58573 13.1998 11.349C13.1998 13.1123 11.7631 14.549 9.9998 14.549C8.23654 14.549 6.7998 13.1123 6.7998 11.349C6.7998 9.58573 8.23654 8.14899 9.9998 8.14899Z" fill="white" stroke="white" stroke-width="0.5"/>
</g>
<defs>
<clipPath id="clip0">
<rect width="20" height="20" fill="white"/>
</clipPath>
</defs>
</svg>
