<svg width="10" height="17" viewBox="0 0 10 17" fill="none" xmlns="http://www.w3.org/2000/svg">
<path d="M0.271122 9.16334L7.83634 16.7284C8.01131 16.9035 8.24489 17 8.49394 17C8.743 17 8.97657 16.9035 9.15155 16.7284L9.70867 16.1714C10.0712 15.8085 10.0712 15.2186 9.70867 14.8562L3.35597 8.50353L9.71572 2.14378C9.89069 1.96867 9.9873 1.73523 9.9873 1.48631C9.9873 1.23712 9.89069 1.00368 9.71572 0.828432L9.15859 0.271584C8.98348 0.0964719 8.75004 9.88616e-08 8.50099 1.18762e-07C8.25193 1.38662e-07 8.01836 0.0964719 7.84339 0.271584L0.271122 7.84357C0.0957328 8.01924 -0.000599744 8.25378 -4.65891e-05 8.50311C-0.000599696 8.75341 0.0957329 8.98781 0.271122 9.16334Z" fill="white"/>
</svg>
