<svg width="17" height="21" viewBox="0 0 17 21" fill="none" xmlns="http://www.w3.org/2000/svg">
<path d="M8.78615 11.2377C8.80431 11.2377 8.82247 11.2377 8.84427 11.2377C8.85153 11.2377 8.8588 11.2377 8.86606 11.2377C8.87696 11.2377 8.89149 11.2377 8.90239 11.2377C9.96669 11.2181 10.8276 10.8128 11.4633 10.0377C12.8618 8.33009 12.6293 5.40278 12.6038 5.12342C12.513 3.0263 11.5977 2.02299 10.8421 1.55477C10.2791 1.2046 9.62161 1.01574 8.88786 1H8.86243C8.8588 1 8.85153 1 8.8479 1H8.82611C8.4229 1 7.63103 1.07082 6.87185 1.53904C6.10904 2.00725 5.17913 3.01056 5.08832 5.12342C5.06289 5.40278 4.83042 8.33009 6.22891 10.0377C6.86095 10.8128 7.72184 11.2181 8.78615 11.2377ZM6.05818 5.22179C6.05818 5.20998 6.06182 5.19818 6.06182 5.19031C6.18169 2.36923 8.0306 2.06627 8.82247 2.06627H8.837C8.84427 2.06627 8.85516 2.06627 8.86606 2.06627C9.84682 2.08987 11.5141 2.52268 11.6267 5.19031C11.6267 5.20211 11.6267 5.21392 11.6304 5.22179C11.634 5.24933 11.8883 7.92483 10.7331 9.3334C10.2755 9.89211 9.6652 10.1675 8.86243 10.1754C8.85517 10.1754 8.85153 10.1754 8.84427 10.1754C8.837 10.1754 8.83337 10.1754 8.82611 10.1754C8.02697 10.1675 7.41308 9.89211 6.95903 9.3334C5.80754 7.9327 6.05455 5.24539 6.05818 5.22179Z" fill="white" stroke="white"/>
<path d="M16.3091 16.093C16.3091 16.0891 16.3091 16.0851 16.3091 16.0812C16.3091 16.0497 16.3055 16.0182 16.3055 15.9828C16.2837 15.2038 16.2364 13.3821 14.66 12.7998C14.6491 12.7958 14.6345 12.7919 14.6236 12.788C12.9854 12.3355 11.6232 11.3125 11.6087 11.3007C11.3871 11.1315 11.082 11.1905 10.9258 11.4305C10.7696 11.6705 10.8241 12.001 11.0457 12.1702C11.1074 12.2174 12.5531 13.3073 14.3621 13.8109C15.2085 14.1375 15.3029 15.1172 15.3283 16.0143C15.3283 16.0497 15.3283 16.0812 15.332 16.1127C15.3356 16.4668 15.3138 17.0137 15.2557 17.3284C14.6672 17.6904 12.3606 18.9416 8.85168 18.9416C5.35727 18.9416 3.03613 17.6865 2.44405 17.3245C2.38593 17.0097 2.3605 16.4628 2.36776 16.1087C2.36776 16.0773 2.3714 16.0458 2.3714 16.0104C2.39682 15.1133 2.49127 14.1336 3.33763 13.807C5.14658 13.3034 6.5923 12.2096 6.65405 12.1663C6.87563 11.9971 6.93012 11.6666 6.77392 11.4266C6.61772 11.1866 6.3126 11.1276 6.09102 11.2968C6.07649 11.3086 4.72159 12.3316 3.07609 12.784C3.06156 12.788 3.05066 12.7919 3.03977 12.7958C1.46329 13.3821 1.41606 15.2038 1.39427 15.9789C1.39427 16.0143 1.39427 16.0458 1.39064 16.0773C1.39064 16.0812 1.39064 16.0851 1.39064 16.0891C1.387 16.2937 1.38337 17.3442 1.57589 17.8714C1.61222 17.9737 1.6776 18.0603 1.76478 18.1193C1.87375 18.198 4.48548 20 8.85531 20C13.2251 20 15.8369 18.1941 15.9458 18.1193C16.0294 18.0603 16.0984 17.9737 16.1347 17.8714C16.3164 17.3481 16.3127 16.2976 16.3091 16.093Z" fill="white" stroke="white"/>
</svg>
